<svg viewBox="0 0 120 30" fill="none" xmlns="http://www.w3.org/2000/svg" aria-hidden="true"><path d="M66.505 21.895v5.68c-3.196 1.604-6.198 2.408-9.204 2.408-8.329 0-13.339-4.884-13.339-11.095 0-6.69 5.73-12.21 13.02-12.21 1.565-.002 3.12.263 4.597.783 1.023.32 1.654.686 2.294.686.565 0 .72-.934.8-1.482h.796l.72 7.689h-.96a7.373 7.373 0 0 0-2.076-3.642 8.115 8.115 0 0 0-5.928-2.325c-5.006 0-7.928 3.967-7.928 9.933 0 5.895 3.566 9.89 8.328 9.89a9.718 9.718 0 0 0 4.253-1.044v-5.844c0-1.878-.3-2.602-3.01-2.602v-.88h10.058v.88c-2.5 0-2.42.8-2.42 3.175ZM38.8 12.514v17.06h-1.318L20.417 11.95c.07.452.098.908.084 1.365V24.05c0 3.276 0 4.48 3.002 4.48v.88h-8v-.88c3.036 0 3.036-1.444 3.036-4.48V11.81c0-1.818 0-3.814-3.196-3.814v-.838h7.554L36.93 21.566a5.298 5.298 0 0 1-.08-1.2v-7.852c0-3.167.08-4.518-2.947-4.518v-.838h8V8C38.96 8 38.8 9.263 38.8 12.514ZM.025 29.41v-.88c1.93 0 3.29-.16 3.29-2.947V10.947C3.314 8.063 2.274 8 .024 8v-.842H11.31V8C9 8 8.04 8.072 8.04 10.947v14.636c0 2.787 1.203 2.947 3.27 2.947v.88H.025Z" style="fill:#000068"></path><path d="M88.623 29.41a5.257 5.257 0 0 1-.48-2.084 2.671 2.671 0 0 1 .24-1.347l-.88.168c-.24.3-.32.463-.32.62l.4-.157c.08 0 .16.156.24.32-.08.396-.56.396-.72.56-.24.8.48 1.264.56 1.92h.96Zm30.737-10.286a13.53 13.53 0 0 0-4.009-9.537c-1.111-1.12-2.332-1.659-3.297-2.762a5.903 5.903 0 0 1-1.166-1.6c-.32-.358-.7-.656-1.124-.88.08.24.16.48.244.72h-.084a2 2 0 0 1-1.12-.48l.316-.324c-.08-.147-.316-.147-.48-.147-1.264-.22-2.45.471-3.697.711v.16c.8.24.947 1.2 1.39 1.684h.462c.16 0 .421.16.565.16a1.572 1.572 0 0 0-.16-.48.299.299 0 0 1 .48 0c.4.245.96-.16 1.36.48a2.55 2.55 0 0 0-1.36.245c0 .084.244.227.16.391-.396-.164-.885 0-1.045-.307l-.08.059a4.457 4.457 0 0 0 1.925 1.263c1.044.16 1.924-.32 2.947-.08 3.617 1.764 6.185 5.895 6.185 10.013 0 5.894-3.368 8.21-5.473 8.21a2.292 2.292 0 0 1-1.264-.463c.281-1.05.41-2.135.38-3.221 0-3.406-1.344-7.09-3.188-8.973-.88-.88-1.832-1.6-2.813-1.6-.484 0-.968 0-1.284.421a1.595 1.595 0 0 0-.56 1.36 4.513 4.513 0 0 1-2.484.72 4.867 4.867 0 0 1-2.99-1.12v-1.233c-.23-.08-1.027-.565-.63-.927.177.065.341.162.483.287-.084-.522-.084-1.162-.484-1.647a1.065 1.065 0 0 1-.636-.16 1.385 1.385 0 0 1-.488-.96c.248.421.644.24.884.48-.396-.96-.24-1.36-.96-2.762-.16-.72-.88-1.12-1.36-1.6-.24-.16-.32-.4-.615-.4-.316-.08-.316-.48-.316-.711.168.058.327.136.476.231-.476-1.09-.8-2.282-1.836-2.947l-.244.16h-1.263c.23-.158.473-.3.724-.421a.997.997 0 0 0-.863-.295c-.252.156-.53.264-.82.32h-.077c0-.24-.084-.56.383-.72a4.29 4.29 0 0 0-1.43 0c-.08.4-.317.64-.317.96-.24.16-.324.421-.564.644.067-.49.176-.972.324-1.444-.324.08-.724.32-.884.32A5.923 5.923 0 0 0 85.82.286c.484.316.244.876.324 1.263l-.324-.16c-.076-.32-.48-.56-.556-.96a2.16 2.16 0 0 0-1.204.4v.08c.297.051.558.226.72.48-.56 0-.96-.24-1.52-.24 0 0 0-.08-.076-.08a1.832 1.832 0 0 0-.58.48 3.461 3.461 0 0 0-1.2 1.596c.16 0 .4 0 .48.08-.32.08-.48.48-.8.564v1.167c-.32.251-.569.582-.72.96a14.283 14.283 0 0 0-.485 4.282.623.623 0 0 1-.42.484v1.238a7.71 7.71 0 0 1 .744-.552v1.002c-.324 0-.56.422-.56.64 0 .32.08.64.08.96a.501.501 0 0 0 .076.32c0-.16.164-.32.42-.42a.699.699 0 0 1 .48-.16 3.105 3.105 0 0 0-.48.88l-.24.24a.778.778 0 0 0-.084.244 24.66 24.66 0 0 0 1.445 4.631c-.64 1.032-1.36 3.036-1.845 4.956a1.966 1.966 0 0 0-1.44-.476 1.748 1.748 0 0 0-1.263.72 1.284 1.284 0 0 0-1.427.16c-.66.573-.66.889-.66 1.356a1.63 1.63 0 0 0-.485 1.12c-.043.65.127 1.298.484 1.844H86.71a2.104 2.104 0 0 0-.4-.72c-.24-.48-.08-1.124-.08-1.604.22-.475.49-.925.805-1.343.075-.244 0-.244.075-.32l.56-.097c.32 0 .56-.236.96-.236.245.333.245-.244.65-.42.874-.16 1.683 0 2.171.64 0 .096.08.096.08.172h-.42a1.969 1.969 0 0 0-1.533-.173c0 .173-.08.173-.08.421v.421c.315 0 .564.3.875.463.218-.277.545-.447.897-.463a.883.883 0 0 1 .964.863v.88a2.89 2.89 0 0 0 1.12.556.585.585 0 0 1-.64.324h-.64c-.08-.08-.24-.08-.24-.324a6.23 6.23 0 0 0-.564.964h9.263c-.155-.32-.32-.56-.4-.72a5.48 5.48 0 0 1-.16-1.604l.885-1.187c.475 0 .88-.156 1.76-.236.164-.24 0-.337.72-.337a2.95 2.95 0 0 1 1.12.173c.084.164.084.164 0 .32-.156.16-.476-.156-.716-.076-.16.156.08.236.08.421.16.139-.72-.168-.72-.168s-.164.467-.24.631l.476.476c.16.24-.236.48-.236.724-.164-.08-.484-.32-.484-.244-.16.644 0 1.204-.076 1.844h.876l.08-1.36c.084-.804 1.044-2.231 1.604-2.231.292.017.57.133.787.328.148.299.518.463.518.619 0 .156-.219.244-.594.244-.151 0-.151-.244-.387-.42l-.48.5s.56.48.56.804a.92.92 0 0 1-.32.8l-.48-.96c-.244 0-.64.48-.64.716 0 .324-.164.484-.164.964h4.905a3.084 3.084 0 0 0 1.6-.48h.956a6.485 6.485 0 0 0 4.972-1.983c1.925-1.857 3.045-4.9 3.045-7.823h-.02Zm-17.221 7.242-.805.08a.701.701 0 0 1 .325.64.986.986 0 0 1-.325.644c-.155-.164-.155-.42-.315-.644-.16 0-.24.421-.24.564.04.623.23 1.227.555 1.76h.725a14.092 14.092 0 0 1-.245-1.92c.056-.39.172-.77.346-1.124h-.021Zm-10.48.96c0-.316-.236-.396-.56-.396-.152 0-.518.236-.518.396 0 .324-.148 2.084-.148 2.084h.514c.253-.72.733-1.68.733-2.084h-.02Zm-1.685-.08c-.084 0 .085.164-.715-.636-.165 0-.42.476-.42.636.018.74.16 1.471.42 2.164h.631c.013-.72.097-1.52.097-2.164h-.013ZM110.91 7.158a.842.842 0 0 0-.724-.489c-.24-.32-.56-.72-.884-.72.244 0 .564-.24.96-.24.164.422.484.64.564.96l.084.489Zm-2.408-1.684h-.88c-.156-.24-.421 0-.56 0-.14 0-.245 0-.552-.24.467 0 .712-.24 1.112-.4.324.219.64.311.88.64Zm-1.92 9.128c-.522-.156-.817-.396-1.297-.396a2.078 2.078 0 0 0-.96.396c-.24-.32.156-.96.48-1.12a.61.61 0 0 1 .644 0c0 .48.539.24.842.421.139.21.238.444.29.69v.01l.001-.001Zm-.072 1.162c-.45 0-.522-.063-.842-.063a1.262 1.262 0 0 0-1.12.543.653.653 0 0 1 0-.678 1.71 1.71 0 0 1 .96-.564.952.952 0 0 1 1.002.754v.008Zm1.832 1.764a4.755 4.755 0 0 0-2.13-.652c-.573.11-1.11.357-1.567.72l-.164-.72c.484-.08.484-.48.804-.48.24 0 .551-.08.775-.08.223 0 .37-.156.45-.156.387 0 .227.421.467.421.24 0 .422-.164.565-.164.404-.021.72.623.8 1.103v.008Zm.24 1.76c-.56 0-1.116-.155-1.2-.42-.16-.16 0-.48-.421-.48-.16 0-.396.24-.396.24-.152.08-.594-.24-.594 0 0 .42-.303.56-.703.56a1.066 1.066 0 0 1-.48-.076v-.792c1.032 0 .96-.32 1.406-.32.3 0 .527.16.767.16.42 0 .164-.16.564-.16.4 0 .56.32.8.421.017.219.257.526.257.859v.008Zm-.72 1.722c-.24-.08-.8-.16-.8-.4 0-.32-.165-.42-.552-.42-.34.02-.673.102-.985.24a2.165 2.165 0 0 1-.32-.636 3.96 3.96 0 0 1 1.078-.232c.534 0 1.099 0 1.099.232 0 .328.48.416.48 1.208v.008ZM94 8.547c0 .08-.165.8-.165.8l-.64.165.4-1.731c.174.233.31.492.405.766Zm15.376 15.26a1.53 1.53 0 0 1-.218 1.035l-.48-.72c.164-.24.164-.56.4-.96.08-.004.307.564.307.644l-.009.001Zm-1.903-1.04c-.568 0-.244-1.125-1.406-1.125-.223 0-.375.421-.695.484a9 9 0 0 1 .085-.564.743.743 0 0 1 .387-.64c.594 0 .446.24.9.421.225.128.473.21.73.24v1.183l-.001.001Zm-4.993-4.527c-.72-.4-1.125-1.12-1.765-1.844.64 0 .805.644 1.285.724.18.138.34.298.48.476v.644Zm-6.82-5.895c-.48 0-.72-.24-.96-.686a3.758 3.758 0 0 1 0-.956c.154.32.154.48.32.64.32-.16.32.236.4.316.12.215.201.45.24.695v-.009Zm13.165 13.545c-.108.14-.19.299-.244.468 0-.388-.48-.623-.8-1.263l.32-.565c.31.154.521.456.56.8a.425.425 0 0 0 0 .337c0 .076.164.076.164.232v-.009Zm-1.604-2.252c-.022.272-.076.54-.16.8-.552-.076-.552-.72-.632-.8-.37-.48-.905-.08-1.305-.08-.16-.48.08-.48.08-.8.244 0 .48-.164.707 0 .37-.164.598.24.985.24.092.224.2.44.325.648v-.008Zm-4.021-3.284c0 .32-.16.56-.076.88-.164-.48-.484-.96-.644-1.436 0-.076-.08-.076.084-.156.076 0 .396 0 .396.08.13.191.212.41.24.64v-.008Zm-6.98-6.24c-.08.324-.4 0-.477 0h-.724c-.08-.16-.165-.24-.165-.421.325-.08.565-.24.805-.08.16.282.32.5.56.5v.001Zm1.763 1.802a1.081 1.081 0 0 1-1.36-.08l.636-.278c.224.15.468.27.724.358Zm4.097 4.526c0 .48-.08 1.044-.08 1.604-.24 0-.24-.16-.24-.484a8.294 8.294 0 0 0-.421-1.36c-.156-.627-.556-1.162-.876-1.882-.08-.32-.484-.48-.804-.724a1.43 1.43 0 0 1 1.124.324c0 .16.08.24.32.48.56 0 .4.724.88 1.044a6.983 6.983 0 0 0-.48.518c.257.16.497.248.577.48Zm-3.13-2.362c0 .24-.15.32-.303.48a1.765 1.765 0 0 1-.29-.56 2.196 2.196 0 0 1 .071-.72c.202.24.522.56.522.8Zm7.478 7.246c0 .03-.147.173-.147.173a2.145 2.145 0 0 0-1.078-.253c0-.316-.24-.72-.4-.72-.48 0-.421.32-.8.32l.72-.72c.08-.16.08-.16.24-.16.24.16.32.244.56.244.007.162-.019.324-.076.476.236.16.387-.08.539.16.223.084.442.164.442.48Zm-6.434-5.537c0 .156-.24.316-.32.316a1.89 1.89 0 0 1-.475-.737c-.004-.31.078-.614.235-.88.08 0 .16.16.24.16.08.08 0 .325.08.56.24.16.4.442.24.581Zm-6.15-7.675a7.625 7.625 0 0 0-3.17-1.002c.022.188-.002.38-.073.555.94.392 1.816.92 2.602 1.567v.72c-.8-.8-1.684-1.6-2.678-1.84-.072.16-.379.32-.455.64a4.328 4.328 0 0 0-1.848-.88c-.24 0-.4-.842-.4-.842.375-.133.67-.429.8-.805h.324c.244 0 .244-.16.244-.395 0-.485-1.044-.485-1.524-.485a2.067 2.067 0 0 0-1.284.24c-.156 0-.076.245-.076.421 0 .076.236.236.236.236.164 0 .324-.16.488-.16-.084.484.076.724.556.964l-.08.78c-.964 0-1.604.378-2.32.702a2.106 2.106 0 0 1-.564-.64c-.96.316-2.577 1.6-2.577 1.6v-.576c.707-.64 1.617-.965 2.337-1.327v-.555c-.32-.16-.64 0-.96 0a3.895 3.895 0 0 0-1.857.778 2.748 2.748 0 0 0-.08-.538c.884-.48 1.937-.88 2.977-.72v-.325c-.08-.16-.08-.395-.24-.395-.48-.485-.96-1.205-.96-1.685l.32-.151c-.16-.455-.32-1.65 0-2.05a2.526 2.526 0 0 1-1.053-.96 4.892 4.892 0 0 1-.42-1.091c.243-.48.42-.64.627-1.112a.493.493 0 0 0 .42-.24c.396-.08.636-.48 1.116-.24.306.033.604.114.885.24a.447.447 0 0 0 .155.421c.48 0 .48.472.725.876.208.058.424.084.64.076.48.151.88.151 1.04.366a3.158 3.158 0 0 1 2.004-.366c.127-.31.236-.628.324-.952.076.232.076 0 .236 0 .295-.24.66-.64 1.217-.48.32.24.88.08 1.2.48.24.312.4.792.64 1.17-.24.472 0 1.112-.48 1.352l-.48.48c-.16 0-.16.16-.4.16a2.59 2.59 0 0 1-.16 1.89c.16-.067.4-.067.4-.294.08.08 0 .227 0 .295v.231a1.659 1.659 0 0 1-.565 1.12c-.155.485-.56 1.125-1.077 1.205v.16a6.978 6.978 0 0 1 3.242.875l.025.506Zm3.258 5.006-.42.16a2.316 2.316 0 0 1-1.685-.564c.32 0 .724-.421.724-.421.377.395.855.68 1.381.825Zm-2.26-1.802c-.45 0-1.01.24-1.264-.24.181-.14.344-.303.484-.484l.78.724Zm6.499 7.448c0 .421-.475.88-.64 1.2.165-.42.165-1.2 0-1.2-.16-.08-.48 0-.48-.164 0-.24.08-.556.08-.716 0-.324-.24-.484-.24-.644 0-.48.565-.56.725-.88.07.342.097.691.08 1.04 0 .16.24.644 0 1.044.013.24.488.08.488.32h-.013Zm-1.827-.871c0 .475-.315.88-.395 1.36a1.595 1.595 0 0 0-.396-1.2c0-.16.227-.16.076-.421 0 0-.42-.24-.42-.56 0-.32.29-.56.42-.8 0-.08.32.16.32.64.007.164-.022.328-.085.48-.084.248.48.248.48.5v.001Zm-6.55-5.66c-.422.08-.72-.32-1.12-.48-.085-.393-.192-.78-.32-1.161.32.24 1.04.24.88.964 0 .198.332.357.56.677Zm2.214 2.245a2.055 2.055 0 0 1-1.17-.24 2.69 2.69 0 0 1-.885-.644 3.05 3.05 0 0 1 .876-.333c.324.333.62.897 1.18 1.217ZM81.79 6.185l-.556.16.076-.42c.133-.251.294-.486.48-.7v.96Zm10.215 11.078c-.324.08-.884.24-1.036-.16a1.9 1.9 0 0 1 0-1.882c.132.434.236.875.312 1.322.084.333.564.497.724.72Zm-2.257-4.35c-.084.48-.24 1.2-.724 1.525a1.19 1.19 0 0 0-.316-.724c-.084 0 0 .24-.084.24-.067.265-.12.533-.156.804a.905.905 0 0 1-.804.076v-.24a1.754 1.754 0 0 1-.08-.64l-.08-.08c-.24.08-.24.24-.24.42a1.208 1.208 0 0 0-.236.56 1.09 1.09 0 0 1-.724-.24v-.72c0-.16 0-.16-.08-.16l-.42.422c-.32-.24-.4-.88-.4-1.263 1.283-.72 2.883-.48 3.851-.08.173.02.333.02.493.1Zm4.097 6.455h-.24c-.88.29-1.6-.235-2.324-.72a4.21 4.21 0 0 1 1.457-.248l.24.48c.304.134.595.297.867.488ZM81.962 7.297l-.4.484c.08.766-.24 1.326-.24 2.05l-.4-1.284c.074-.356.21-.696.4-1.006l.64-.244Zm8.185 10.299c-.42-.236-1.124-.316-.96-.8.16-.421.4-.48.56-.636.044.5.18.986.4 1.436Zm7.352 8.147h-.08c-.16-.244-.24-.421-.4-.421.24-.88-.24-1.6-.396-2.32v-.24c.24.421.876.8.796 1.2.06.592.087 1.186.08 1.781Zm-1.84-2.977c-.42 0-.72 0-.96-.42-.08 0-.215-.237-.295-.077-.396.316-.8-.24-1.263-.16a1.563 1.563 0 0 1-.88.476v-.059a.75.75 0 0 1 .476-.631c.48.16.88-.885 1.364-.325.197.061.404.088.61.08.552.245.708.712.948 1.116Zm-7.276-6.45c0 .56-.08 1.263-.64 1.524l-.16-.8c.306-.194.577-.439.8-.724Zm2.67 3.473a1.545 1.545 0 0 1-.898.316 7.714 7.714 0 0 1-1.263-1.482l1.263.24c.321.287.622.597.898.926Zm4.774 4.565c-.32-.245-.8-.245-.964-.645a3.302 3.302 0 0 0-.926-.08 4.63 4.63 0 0 1-1.045.08c-.084 0 0-.08-.16-.16-.48.16-.964.16-1.444.645l.4-.965c.245-.035.487-.089.724-.16.262-.062.531-.089.8-.08v.08c.885 0 1.895-.08 2.527.64l.088.645Zm-9.124-6.758c-.48-.476-.884-.88-.884-1.36.25-.026.503.03.72.16 0 .4.164.724.164 1.2Zm-1.52-2.278-.244.998a4.697 4.697 0 0 1-.56-1.482l.804.484Zm11.44 10.66a5.877 5.877 0 0 0-.324.952c-.16-.484-.32-1.187-.88-1.187a.951.951 0 0 0-.48-.653l-.615-.08c.08.316.53.316.223.733.307.236.552.236.707.623.165.244 0 .564.085.72l-.485.24c0-.396.085-1.179-.45-1.347-.476.168-.56-.48-.88-.653-.16 0-.16-.396-.4-.236-.4.236-.88 0-1.263.236l.4-.64c.32-.24.64-.16.96-.24l.64-.076c.64 0 1.174.316 1.814.56a.77.77 0 0 1 .464.754c.16.06.484.059.484.294Zm-6.316-3.692h-.16c-.29-.09-.56-.233-.8-.42a1.845 1.845 0 0 1-.076-.485h.632l.404.905ZM84.14 16.56c-.512-.2-.952-.55-1.263-1.002a2.607 2.607 0 0 1-.224-.964.7.7 0 0 1 .586.42v.085c.42.48.82.817.9 1.46l.001.001Zm3.844 2.808c-.076.447-.32.602-.72 1.162-.236.16-.724.24-1.2.48.08-.24.316-.32.476-.56.216-.269.405-.56.564-.867.263-.163.571-.238.88-.215Zm5.86 7.727-.24.24c-.24-.24-.08-.88-.48-.96-.4 0-.72-.388-.88-.468l.32-.156a.387.387 0 0 1 .32 0c.16.156.32.236.32.422.16.218.4 0 .565.218.095.22.121.461.076.695v.009ZM86.54 18.72c-.236.48-.476.93-.956 1.086-.37.08-.754.08-1.124 0 .24-.156.48-.231.804-.446l.636-.64h.64Zm1.604 3.642a1.036 1.036 0 0 1-.96.164l-.48-.631h1.204l.236.467Zm-5.777-6.046c-.42.42-.804.56-.964 1.044a1.595 1.595 0 0 0-.156-.644 1.05 1.05 0 0 1 .396-.556c.24.076.4.076.724.156Zm.893 1.204a1.705 1.705 0 0 1-.51 1.12 3.031 3.031 0 0 1-.303.24c0-.48.227-.88.227-1.263.224-.097.443-.257.586-.097Zm1.12.96-.32 1.17c-.4.312-.943.156-1.386.156.586-.156 1.066-.842 1.386-1.326.08-.08.16 0 .32 0Zm.4 4.046c0 .24-.08 1.2-.08 1.2-.16-.56-.56-1.124-1.04-1.124a1.966 1.966 0 0 1-.543-.716c-.22-.244-.443 0-.75-.244a1.646 1.646 0 0 0-1.044.244v-.244l.56-.64c.564.08 1.234 0 1.377.421.33.16.627.379.88.644v.24c.177.055.48.14.64.22v-.001Zm-.4 2.484-.56.489c-.16-.173 0-.569-.24-.813 0-.16.16-.24.08-.316-.08-.16-.986-.484-.986-.484-.36-.246-.704-.513-1.03-.8-.32-.08-.56.08-.96.16v-.16c.16-.32.16-.724.64-.724.24 0 .56 0 .72.24.323 0 .483.324.706.421.268.282.574.524.91.72a.494.494 0 0 0 .235.467c.485 0 .325.476.485.8Zm-1.196 1.137-.215.8-.522-1.431c-.644-.569-1.364-.653-1.764-.973-.32-.08-.32.16-.48 0a.814.814 0 0 1 .24-.64h.48l.48.24c.24.244.8.244.8.72 0 .084-.08.164.164.48l.75.173.067.631Zm-2.18.8c0 .636-1.04 1.516-1.04 1.516 0-.396.24-.88.24-1.36a1.137 1.137 0 0 0-.645-.32c-.24.164-.24.32-.32.56-.24.484-.72.964-.8 1.444a.08.08 0 0 1-.08-.08c0-.8.08-2.164.56-2.711.29-.36.725-.57 1.187-.573l.421.076-.32.48c.32.168.796.467.796.968Zm-2.81-.484c.008.31-.074.616-.235.88-.08-.316-.308-.716-.69-.716-.32.636-.4.88-.085 1.836a2.194 2.194 0 0 1-.716.484 3.036 3.036 0 0 1-.164-1.2 4.958 4.958 0 0 1 .244-1.583c.236-.248.4-.648.636-.82h.842c-.387 0-.387.336-.387.572.24.063.555.147.555.53v.017Zm-2.046.88c-.084 0-.324-.24-.56-.24-.23.48 0 .804 0 1.36a1.684 1.684 0 0 1-.084.484c-.147 0-.42-.32-.505-.64v-1.263l.67-.863a.977.977 0 0 1 .48 1.145v.017Zm16.421-22.1a1.65 1.65 0 0 0-.16-1.491c-.16-.32-.56-.48-.96-.792l-.55.312a.93.93 0 0 0-.423.842 3.23 3.23 0 0 1 1.306 1.351h.244c.22-.24.38.009.54-.24l.003.018Zm-2.66.48c0-.24-.08-.24-.157-.24-.4 0-.4-.64-.724-.48-.156 0-.316-.16-.556 0 0 .08 0 .08.156.08.4 0 .244.56.564.64h.717Zm1.216.96s.16 0 0-.077l-1.684-.244c-.156.244-.56.244-.56.48h-.16c.136.672.19 1.358.16 2.042.37.035.648.35.64.72.33.13.647.29.947.48.147-.076.22-.316.295-.556-.295-.42-1.002-.164-1.002-.884l-.476-.16a5.61 5.61 0 0 0-.084-1.263l.084-.059c0 .059.076.143.236.307.325.067.663.008.947-.164.147-.084.147-.471.295-.471.147 0 .29-.009.358-.169l.004.017v.001Zm-3.937-1.685c-.156-.16-.644.08-.88.16a.674.674 0 0 0-.56.56h.88c.14-.276.328-.524.556-.733l.004.013Zm-1.764-.872c-.08-.779-.96-.842-1.36-1.17h-.32c-.623.231-.77.876-.842 1.402.22.72.682.24 1.002.72a9.02 9.02 0 0 1 1.516-.964l.004.012Zm4.728 7.314v-.408h-.783l-.076.08.86.328Zm-3.608-4.602c0-.16-.16-.32-.396-.48h-1.924a.462.462 0 0 0 .48.48c0 .328.24.387.324.471.24.165.316.165.56 0 .236.165.316-.143.4 0 .018.366-.01.732-.084 1.091-.08.56-.56.48-.96.72 0 .24-.24.644 0 .884.25-.17.52-.312.804-.42 0-.24.24-.48.56-.64-.004-.717.232-1.403.232-2.119l.004.013Zm-.64 4.21c-.156-.32-.56 0-.96-.16a.477.477 0 0 0 .244.48 1.26 1.26 0 0 1 .712-.336l.004.016Z" fill="none"></path><path d="M119.592 19.127a.81.81 0 0 0-.536-.232 3.124 3.124 0 0 1 0-.842c.155 0 .461.08.461 0a4.302 4.302 0 0 0-.151-1.162 5.52 5.52 0 0 0-.62-.232 1.476 1.476 0 0 0-.15-.619c.173-.06.356-.088.54-.08 0 0-.159-.694-.235-1.006a1.324 1.324 0 0 0-.54-.076 3.445 3.445 0 0 1-.23-.543c.15-.08.31-.08.465-.156a3.56 3.56 0 0 0-.39-.774h-.54a1.123 1.123 0 0 1-.151-.468c.075-.076.23-.156.306-.231a1.688 1.688 0 0 0-.386-.62c-.15 0-.31.076-.46 0-.076 0-.306-.311-.231-.311.076-.156.231-.232.306-.307-.23-.312-.306-.543-.54-.7a.96.96 0 0 0-.457.076 2.88 2.88 0 0 0-.239-.307c-.226 0 .16-.387.16-.387a7.577 7.577 0 0 0-.775-.842c-.151 0-.306.155-.381.155 0 0-.31-.231-.31-.311 0-.156.31-.232.31-.232a5.424 5.424 0 0 0-.93-.842.684.684 0 0 1-.381.076 2.478 2.478 0 0 0-.541-.387s.231-.156.231-.232a7.304 7.304 0 0 1-.838-.619 1.58 1.58 0 0 1-.62-.623c-.536-.842-1.231-2.105-2.932-2.324 0 0 .385.543.616.93 0 .08 0 .08-.31.08h-.54a4.44 4.44 0 0 1-.31-.467 1.623 1.623 0 0 0-.386-.543c-.31-.232-1.851.623-3.162.93.31.388.616.62.695.775.473.498.911 1.028 1.311 1.587.087-.095.191-.173.306-.231 1.005-.156 1.005-.392 1.005-.392s-.775-.619-.234-.619c0 0 .389.08.54-.076.35-.12.73-.12 1.081 0 .252.24.484.499.695.775-.155 0-.306-.08-.465-.08a3.618 3.618 0 0 0-1.311.08c.277.237.535.496.771.775a1.627 1.627 0 0 0-.616 0c-.2.07-.406.122-.616.156-.234.076-.46 0-.62.076a8.054 8.054 0 0 0 2.392.698 3.472 3.472 0 0 0 1.546-.311c.075-.076.23-.156.305-.076.232.035.448.143.616.307 2.006 1.243 4.239 4.186 4.934 5.735a11.082 11.082 0 0 1 1.081 4.632 8.975 8.975 0 0 1-2.002 5.895 5.698 5.698 0 0 1-3.77 2.016c.457.54.691 1.398.921 2.165.288-.042.569-.118.838-.228 0-.627-.385-1.318-.385-1.47.25-.171.537-.28.837-.315.179.4.385.787.616 1.158.287-.133.549-.314.775-.535a5.086 5.086 0 0 0-.385-1.318c.271-.124.551-.23.837-.316.155.236.541.468.616.703.223-.227.406-.492.54-.783-.155-.303-.385-.539-.54-.842l.616-.699s.389.312.54.468a2.5 2.5 0 0 0 .54-1.007c-.385-.391-.54-.391-.615-.619.151-.231.23-.547.389-.779.187.089.366.192.536.308.175-.336.28-.704.31-1.082-.155-.156-.389-.232-.544-.383.079-.392.155-.78.155-.78.178.037.359.062.54.076.064-.402.096-.809.096-1.216ZM94.927 4.946c.075-.236-.08-.468-.08-.7a11.241 11.241 0 0 1-.46-1.705V2.23c-.31-.152-.62-.232-1.006-.388-.002.242.05.481.155.7.19.418.322.862.39 1.317.014.24.065.475.15.7.272.153.557.282.85.387Zm1.85 2.947a2.983 2.983 0 0 0-.389-1.394c0-.076-.075-.156-.23-.236-.23-.231-.46-.463-.536-.463-.235-.231-.385-.463-.62-.699-.23 0-.385.236-.54.312-.076.156-.386.307-.23.387.075.156.23.156.385.232.167.147.348.278.54.391.258.353.538.69.838 1.007.155.076.234.151.31.151.173.076.333.18.473.308v.004Zm.772 2.017c.15 0 0-.236 0-.312-.31-.467-.54-1.318-.62-1.318-.23-.08-.386 0-.691-.155-.24-.185-.5-.34-.775-.464-.076 0-.306-.08-.616-.155h-.385c.11.208.234.408.372.597-.006.16.021.32.08.468.416.109.827.236 1.231.383.155 0 .696.623.771.699.243.173.478.328.633.253v.004Zm12.025 13.638c0-.076 0-.695-.155-.695-.076-.076-.151-.316-.231-.392a1.652 1.652 0 0 0 0 .62c0 .155-.31.31-.23.39.23.077.385.62.54.776.226.303.151-.565.076-.704v.005ZM93.306 1.535A12.657 12.657 0 0 0 91.065.293c-.46.387-.77.699-1.001.699-.23 0-.08-.467-.08-.775a1.667 1.667 0 0 1-.615-.08c-.151.543-.23 1.263-.616 1.398a.592.592 0 0 1-.31.076V.99c0-.08.31-.622.234-.698a7.83 7.83 0 0 0-.837.232c-.188.135-.396.24-.616.311a1.668 1.668 0 0 0-.31-.08c-.23-.151-.385-.151-.616-.307-.31.93-.385 1.162-.385 1.006A8.943 8.943 0 0 1 84.447.293c-1.001.156-1.001.312-1.851.619a7.943 7.943 0 0 0-1.077 1.166c-.155.308-.31.463-.465.775l.771.307c.2-.243.38-.502.54-.774a11.55 11.55 0 0 0 1.776-1.163c.431.355.896.667 1.387.931.292.19.604.35.93.476.215-.303.371-.645.46-1.007.245.113.504.191.77.232-.012.312.014.625.08.93 0 .156.151.08.461-.075.465-.156.926-.232 1.156-.312.54-.307.838-.93 1.311-.93.445.018.878.152 1.257.387.194.087.403.14.615.156.277-.013.507-.324.738-.476Zm10.173 13.638a.842.842 0 0 0-.305-.695 6.67 6.67 0 0 1-2.002.308 6.353 6.353 0 0 1-2.622-.62.846.846 0 0 0 0 .464c.46.387.46.156.837.543.198.298.304.648.306 1.006.08.312.239.392.39.842a.948.948 0 0 1 .615-.076 3.004 3.004 0 0 0-.23-.842c-.08-.155-.31-.619-.385-.774.075 0 .305.307.695.307.075 0 .306.08.461 0 0 0 .23.156.23.312a2.2 2.2 0 0 1 .23.623c.155 0 .235 0 .31-.08.159.007.317-.019.465-.076a1.14 1.14 0 0 1-.155-.467 10.499 10.499 0 0 1-.234-.54l1.394-.235Zm-5.084-1.086s-.155-.93-.306-2.013c-.16-.93-.235-1.263-.465-1.625a.696.696 0 0 1-.385.075c-.132.043-.26.094-.386.152.222.761.376 1.54.461 2.329-.038.23-.038.464 0 .694l1.08.388Zm13.193 8.99c0-3.95-1.386-7.285-3.082-9.142-1.001-1.01-2.095-1.63-3.163-1.63a1.551 1.551 0 0 0-1.616 1.394c0 2.792 1.076 4.573 1.775 6.122.205.325.311.702.306 1.087.076 1.01-.77 2.867-1.311 3.877a1.668 1.668 0 0 0-.77-.155c-.596 0-1.111.42-1.232 1.006-.234 0-.389-.156-.62-.156a1.68 1.68 0 0 0-1.675 1.684c-.019.796.197 1.58.62 2.253h.716c-.075-.24-.306-1.394-.381-1.714-.08-.364.036-.745.306-1.002.31-.467 1.08-.311 1.08-.311a3.421 3.421 0 0 0-.54 1.633c.057.483.188.953.389 1.394h.616a3.439 3.439 0 0 0 0-1.263 2.17 2.17 0 0 1 .076-.699c0-.156.381.307.381.307.163-.197.27-.436.31-.69 0-.24-.461-.16-.541-.392-.01-.267.043-.532.155-.774a1.48 1.48 0 0 1 1.006-.24c.23 0 .305.08.615.08.231 0 .306-.46.306-.695.111.104.242.185.385.236.231.075.31.075.541.151.343.15.657.361.925.623v-.08c-.079-.316.076-.694-.155-.842a4.576 4.576 0 0 0-.691-.459c-.155-.16-.389-.16-.465-.316-.075-.075-.075-.151-.075-.307s.075-.387.151-.387c.159-.076.234 0 .54.151.289.166.568.348.838.543 0 0 .079.156.079.08.306-.155.306-.231.306-.698-.306-.388 0-.464-.465-.771a7.786 7.786 0 0 1-1.001-.316c.047-.19.125-.373.23-.539a.194.194 0 0 1 .315.076c.382.221.798.378 1.231.463a.465.465 0 0 0-.075-.539 1.96 1.96 0 0 0-.541-.547 5.681 5.681 0 0 1-.695-.227 3.39 3.39 0 0 0-.155-.78c0-.151.155-.075.31-.075.306-.076 1.617.387 1.617.387a.95.95 0 0 0-.231-.699 1.756 1.756 0 0 0-.695-.463c-.54-.156-1.001-.076-1.386-.312a1.236 1.236 0 0 1-.428-.669c.273-.084.554-.135.838-.152a2.55 2.55 0 0 1 1.077.08c.155.072.695.544.929.544a3.942 3.942 0 0 0-.31-.843c-.23 0-.619-.463-.77-.543a1.74 1.74 0 0 0-1.387-.076c-.23.038-.465.038-.695 0-.079-.155.155-.387.08-.543 0-.08-.31-.155-.31-.311a9.172 9.172 0 0 1 1.696-.076c.24.159.497.289.767.387a1.58 1.58 0 0 0-.076-1.01c-.385-.076-.766 0-1.08-.076a3.152 3.152 0 0 0-.838 0c-.23 0-.461-.076-.695-.076a1.261 1.261 0 0 1-.231-.699s1.931-.075 2.094-.155a1.204 1.204 0 0 1-.314-.308c-.305-.543-.54-.623-.921-.623-.235 0-.775.236-1.081.156 0-.62.306-1.162.771-1.162 1.015.02 1.971.48 2.622 1.263 1.931 2.012 2.932 5.81 2.932 8.526a20.433 20.433 0 0 1-.306 3.33c.199.063.408.089.616.077.283-1.101.436-2.232.456-3.369ZM94.462 10.208s-.23-1.007-.386-1.474a2 2 0 0 0-.385-.695.595.595 0 0 0-.155.308c-.155.235-.385.387-.23.619.02.305.128.597.31.842.23.248.54.172.846.4Zm8.712 7.579c-.076-.232-.31-.312-.461-.463-.384-.15-.777-.277-1.177-.38-.151.076.39.388.465.54.31.311 1.081 1.006 1.081 1.006l.092-.703Zm-6.786-4.96a1.86 1.86 0 0 0-.15-.62 5.54 5.54 0 0 0-.31-.841 1.184 1.184 0 0 0-.076-.544.28.28 0 0 1-.23-.075 2.678 2.678 0 0 1-.545-.08c0 .236.08.623.08.842.096.295.225.577.385.842.061.14.172.25.31.312.239.029.386.185.536.185v-.021Zm12.88 12.48c0-.076-.239-.236-.31-.236a1.153 1.153 0 0 0-.155-.463c-.155-.08-.155-.156-.31-.156a.615.615 0 0 1-.075.312c0 .151-.155.231-.08.383.075.151.155.16.31.235.075.076.31.7.381.775.08-.055.08-.522.239-.83v-.02Zm-5.479-5.175a1.521 1.521 0 0 0-.15-.842c-.235 0-.39-.156-.541-.156-.151 0-.234-.392-.465-.312.08.156.231.931.31 1.087.239.342.373.748.386 1.166.245-.26.406-.589.46-.943Zm8.402 8.91c.16-.076 0-.232 0-.308-.075 0-.381-.69-.615-1.01 0 0-.076.231-.151.395-.128.239-.206.5-.23.77.23.152.305.077.615.077.129.017.256.042.381.075ZM98.55 16.258a5.76 5.76 0 0 1-1.077-.774c-.234 0-.234 0-.465.231-.155 0-.23.076-.31.232.23.155.31.231.54.391.076.076.156.076.386 0h.616c.155 0 .31.076.31-.08Zm-1.852-1.393c.155-.236-.155-.236-.23-.312a3.267 3.267 0 0 0-.31-.543 1.643 1.643 0 0 0-.23-.387c-.076-.076-.386 0-.54 0a.712.712 0 0 0-.386.075c.155.156.31.7.385.7.076.155.076.23.235.31.363.014.724.066 1.076.157Zm5.63 5.81a.89.89 0 0 0-.235-.623 2.948 2.948 0 0 1-.151-.695 13.673 13.673 0 0 0-.54-.842c-.155-.151-.155-.539-.23-.77l-.926.155a7.65 7.65 0 0 1 1.076 1.857c.08.232.771 2.56.771 2.56.235-.08-.075-1.238 0-1.318.08-.168.08-.244.235-.324Zm-3.008-2.711c0-.7-.159-.7-.46-1.007-.118.238-.248.47-.39.695.19.194.323.435.39.699.143-.14.297-.27.46-.387Zm10.945 10.947a.308.308 0 0 0-.151-.307h-.39c-.15-.08-.226-.08-.305 0-.231.227-.231.614-.39.842h.93c.155-.165.306-.249.306-.556v.02Zm-10.019-9.02v-.23a2.003 2.003 0 0 1-.155-.388c-.075-.156-.15-.387-.39-.467 0-.08-.07.311-.15.467a3.01 3.01 0 0 0-.23.387c.15.232.23.383.38.62.063.139.143.269.24.387a4.08 4.08 0 0 0 .305-.775Zm-6.25-8.285a6.62 6.62 0 0 0-2.931-.842c0-.08-.155-.156 0-.232.14-.09.27-.195.39-.312.208-.28.36-.6.448-.939.23-.467.46-.311.615-1.317-.23 0-.31.155-.54.231.09-.221.142-.456.155-.695.12-.43.197-.872.23-1.318.316-.085.576-.307.712-.606a2.54 2.54 0 0 1 .084-.631 2.77 2.77 0 0 0-.075-1.167 3.435 3.435 0 0 0-.926-1.082 1.559 1.559 0 0 0-1.16-.08 1.228 1.228 0 0 0-1.077 1.318 3.204 3.204 0 0 0-1.926.543 4.457 4.457 0 0 0-1.232-.387h-.695a1.492 1.492 0 0 0-.54-.842 2.76 2.76 0 0 0-1.387-.54c-.234 0-.46-.08-.695.077-.235.155-.616.311-.695.619a2.872 2.872 0 0 0-.306 1.086c.05.396.207.772.452 1.086.08.152.155.152.31.232.168.047.326.125.465.231.076.08-.08.312-.08.775-.017.236.01.473.08.699.007.287.058.57.15.842-.23 0-.384-.231-.54-.076.06.296.164.58.31.842.398.366.736.792 1.002 1.264 0 .08 0 .231.08.231-.546.038-1.088.115-1.622.232-.502.173-.992.381-1.466.623 0 .184.025.366.076.543.452-.208.917-.39 1.39-.543a3.938 3.938 0 0 1 1.542-.236c.08.156.155.387.08.467-.939.387-1.843.853-2.702 1.394.08.156 0 .388.155.543a20.64 20.64 0 0 1 2.622-1.326c.305-.076.305 0 .46 0 .08.076.235.387.386.387.234 0 .465-.231.695-.311.426-.162.865-.29 1.31-.383.156-.08.156-.236.156-.392a.584.584 0 0 0 .075-.387c0-.076-.31-.152-.465-.463-.15-.232 0-.468-.075-.468-.23.16-.536.312-.616 0-.075-.231-.075-.539.155-.619a3.176 3.176 0 0 1 2.392 0c.15 0 .226.156.226.312.08.156 0 .307-.15.467-.235.076-.462-.236-.462 0a.79.79 0 0 1-.54.695c-.08.076 0 .312.076.543 0 .076 0 .232.075.232a3.78 3.78 0 0 1 1.001.311c.31.152.838.62.93.54.23-.152.306-.388.46-.54.912.36 1.79.802 2.623 1.318.155 0 .155-.311.155-.467-.386-.232-1.542-.842-1.676-.93-.31-.077-.46-.232-.77-.308v-.632c.536.156 1.616.236 2.697.842.058-.219.21-.374.13-.454Zm1.852 3.953c-.31-.151-.695-.307-1.005-.463a2.831 2.831 0 0 1-.77-.543c-.152 0-.231.076-.31.076-.152.08-.231.156-.386.236.213.273.445.53.695.77.08.156.31.156.465.156h.77c.235-.076.39-.076.545-.232h-.004Zm1.307 1.937c.155 0 .155-.307 0-.307a2.092 2.092 0 0 1-1.307-.775c-.24.114-.472.244-.695.387.131.29.314.552.54.775.23.232.691.076 1.08-.08h.382Zm11.103 10.948h-.439a.587.587 0 0 0-.541.383 1.254 1.254 0 0 1-.31.547.46.46 0 0 0 .31.08h.775c.076-.08.076-.316.155-.472-.021-.172.055-.324.055-.555l-.005.017Zm-7.166-6.447c-.08-.156-.155-.391-.23-.543a1.402 1.402 0 0 0-.076-.463s-.54.387-.62.463c.31.387.151.619.231.93 0 .152.31.232.389.468 0 .076-.155.775-.155.775.321-.481.482-1.052.461-1.63Zm5.784 5.192a2.093 2.093 0 0 0-1.776-1.082c-.385 0-.837.467-1.156 1.94-.097.431-.122.875-.075 1.314l.691.08c.155-.24.155-.627.314-.934 0-.152.151-.152.306-.152.224.185.43.391.616.615.121-.214.199-.45.23-.695 0-.076-.23-.227-.31-.227-.185-.186-.43-.3-.691-.32-.08-.303.385-.695.385-.695.42.074.801.293 1.077.619.159-.08.234-.312.389-.467v.004Zm-7.325-4.809a5.569 5.569 0 0 1-.23-1.162c0-.151-.235-.387-.386-.543-.076.232-.306.392-.306.699.184.182.338.392.457.623.075.156 0 .842.075 1.01.235-.235.39-.32.39-.627Zm-6.32-6.042v-.16a2.377 2.377 0 0 1-.541-.926.563.563 0 0 0-.385-.08.476.476 0 0 0-.31-.076c.057.264.134.523.23.775.08.156.235.307.31.307.219.1.455.154.695.16Zm2.466 2.244a3.226 3.226 0 0 0-.54-.463.864.864 0 0 1-.616-.543 1.683 1.683 0 0 0-.31-.467c-.155 0-.23.08-.385.155-.155.156-.465.156-.616.388.073.173.177.331.306.467.123.163.282.295.465.383.54.312.695.392.695.392.359.009.71-.1 1.001-.312Zm-13.8-12.787a1.104 1.104 0 0 0-.156-.463 3.106 3.106 0 0 1-.23-.623c.008-.443.059-.885.15-1.318-.305-.076-.69-.076-.837.236-.121.21-.174.453-.15.694.017.391.067.78.15 1.163a4.607 4.607 0 0 1-.77.543c.079.467.154 1.318.154 1.318.085-.144.189-.274.31-.388.306-.231.461-.387.838-.699.08-.151.155-.076.385-.231.076-.076.155-.156.155-.232Zm10.098 11.701a2.302 2.302 0 0 1-.386-1.006c-.15-.152.155-.7-.23-.7-.155-.075-.616-.23-.616-.23-.08.304-.08.625 0 .93.085.378.27.726.536 1.006.08.08.465.08.54.08a.242.242 0 0 1 .156-.08Zm-1.927-4.417a4.037 4.037 0 0 0-2.161-.463 3.639 3.639 0 0 0-2.233.62c.068.291.171.574.306.841.08 0 .155.156.23.156.155-.156.31-.387.545-.463v.307c-.013.21.013.422.075.623 0 .232.23.232.536.232.306 0 .39-.543.39-.619a.966.966 0 0 0 .54.543s.54 0 .54-.08c.076-.387.151-.463.076-.775.257.175.491.383.695.62.144-.155.249-.34.306-.544.126-.316.179-.658.155-.998Zm4.008 6.665a3.59 3.59 0 0 1-.54-.538 3.671 3.671 0 0 1-.691-.544H91.84c.127.418.401.776.77 1.007.31.223.926.151 1.466.075Zm3.623 5.508c-.1-.697-.15-1.4-.15-2.105a1.385 1.385 0 0 0-.39-.623 1.675 1.675 0 0 0-.381-.228v.308c.013.182.039.363.075.543 0 .155.23 1.238.23 1.553.39.084.39.392.616.552ZM82.051 7.114c-.08-.156-.695 0-.838 0-.385.076-1.076.312-1.076.463-.058.277-.085.56-.08.842.08.232.08.463.156.695.13-.156.287-.288.464-.387.076-.076.922-.695.997-.775.155-.152.235-.076.31-.232-.012-.459.143-.459.067-.606Zm8.247 11.006s-.155-.699-.23-1.01v-1.238c-.31.076-.385.156-.46.156-.235.151-.386.231-.386.387 0 .307.075.619.075.775 0 .231 0 .387.076.463.212.057.419.136.615.236 0 .076.31.231.31.231Zm-1.616-.93a2.405 2.405 0 0 0-.08-1.01c-.306.08-.926.16-.926.39a1.695 1.695 0 0 0 0 .62c.071.171.099.358.08.543a1.22 1.22 0 0 0 0 .539c.075-.152.46-.307.54-.463.154-.19.283-.398.386-.62Zm2.931 3.255a8.57 8.57 0 0 1-.837-.843c-.155-.155-.08-.383-.23-.543a.956.956 0 0 0-.466.08c-.21-.012-.42.015-.62.08.08.152.08.308.235.383.24.254.446.537.616.843.08.151.465.231.77.231.193-.031.374-.111.528-.231h.005Zm-9.717-11.55a5.255 5.255 0 0 0-1.466.543c-.385.232-.54.388-.925.62-.03.235-.003.475.08.698l.075.93c.155-.231.615-.698.837-1.01a3.98 3.98 0 0 1 1.232-.926c.092-.277.148-.564.167-.855Zm5.165 9.377c.23-.232 0-.62 0-.842-.076-.232 0-.463-.076-.7a.419.419 0 0 0-.385-.23c-.155 0-.54-.232-.54-.077-.386 0-.08.388-.08.62 0 .311.775 1.086.775 1.086.15.08.15-.009.306.143Zm-1.772-2.244a3.27 3.27 0 0 0-.155-.543 1.06 1.06 0 0 0-.385-.468c-.076 0-.23-.151-.31-.076a2.748 2.748 0 0 1-.155.695c.155.19.286.4.39.623.066.271.17.532.305.775.075-.312.31-.463.31-1.006Zm-1.541.463s-.235-.7-.31-1.082c-.076-.236.075-.543-.076-.78-.08-.15-.31-.23-.465-.307-.155 0-.31.308-.31.62.022.314.073.626.155.93 0 .076.155.156.31.231.23.156.474.236.695.388Zm6.63 6.35c-.08-.317-.155-.7-.235-1.011a.963.963 0 0 0-.46-.156c-.155 0-.31-.08-.461 0 .075.236.075.387.15.623.245.272.527.508.838.7.088.008.168-.157.168-.157Zm-9.562-9.062c-.076-.543-.23-1.01-.23-1.162-.003-.393.05-.784.154-1.162-.31.152-.695.387-1.005.543v.383c0 .156.08 1.01.08 1.264.075.231.075.463.155.699.085.14.137.299.154.463a.583.583 0 0 0 .23-.232c.202-.235.358-.504.462-.796Zm7.4 5.503a2.014 2.014 0 0 0-.54.152.834.834 0 0 0-.536.156c.01.26-.017.521-.08.774-.154.232-.54.392-.54.78.127.032.256.057.386.075.144-.082.274-.187.385-.311.23-.076.385-.232.616-.312.155-.076.31-1.314.31-1.314Zm8.097 9.07c-.23.076-.691-.156-.691.307-.147.24-.251.504-.31.78h.838a1.07 1.07 0 0 0 .163-1.087Zm.838-2.017a1.797 1.797 0 0 0-.922-1.263 13.574 13.574 0 0 0-1.851-.775c-.46.076-1.236.076-1.696.312a1.083 1.083 0 0 1 0-.842c.075-.152.837-.152 1.076-.152.838.076 1.311.227 1.546.227a.715.715 0 0 0 .54.236 3.7 3.7 0 0 0-.155-.619 5.7 5.7 0 0 0-.838-.311 3.568 3.568 0 0 0-1.156-.308c-.229.039-.46.064-.69.076 0-.076.075-.151.15-.236.136-.195.291-.376.465-.539h1.214c.287.082.567.184.838.308.23 0 0-.388 0-.62a1.12 1.12 0 0 0-.31-.235 3.368 3.368 0 0 1-.837-.307 2.334 2.334 0 0 0-1.081-.152 6.417 6.417 0 0 0-.695.232 7.463 7.463 0 0 0-.838 1.78c0 .156-.386 1.087-.386 1.239a.795.795 0 0 1-.075.235c-.31-.08-1.7-.311-2.094.08-.227.22-.41.481-.536.77a1.315 1.315 0 0 0-.838-.31c-.44.019-.841.253-1.076.627 0 .08-.616 1.263-.54 2.332.08.489.295.945.62 1.318h.837c-.075-.316-.23-.703-.385-1.166a6.982 6.982 0 0 1 .155-1.684c.143-.098.298-.177.46-.236.155-.156.235-.08.465-.08.076 0 .076.08.076.08-.306.311-.306.619-.386 1.086a8.1 8.1 0 0 0 .62 2.017h.612a11.907 11.907 0 0 1-.076-1.714c.006-.264.059-.525.155-.77.155.076.31.076.461.16.234.151.234.307.234.535.024.237-.003.477-.079.703v.366c0 .237.027.472.08.703h.615a2.74 2.74 0 0 1 .151-1.01c.08-.308 0-.472.08-.704a.604.604 0 0 1 .155-.383.717.717 0 0 1 .695-.076c.013.234-.014.467-.08.691a6.468 6.468 0 0 1-.306 1.166.603.603 0 0 1-.154.316h.95c.104-.224.182-.46.23-.703.231.232.541.076.696.076.23-.076.385-.308.536-.46-.306-.23-1-.155-1-.47-.156-.54 0-.616 0-.927 0-.463-.462-.619-.927-.699a1.721 1.721 0 0 0-.615-.076c-.155.076-.31.312-.461.312a2.42 2.42 0 0 0-.54-.312 3.43 3.43 0 0 1-.616-.156c.056-.14.134-.27.23-.387.076-.076.306-.307.386-.307a.688.688 0 0 1 .54.075c.385.076.695.156.77.156.11.034.212.084.306.148.235-.148.235-.303.386-.303.34-.15.708-.23 1.08-.236.386 0 .696.699.926.934.075.152.616.842.926 1.47.155-.076.23-.232.385-.232a2.846 2.846 0 0 0-.155-.842c-.23-.703-.691-.842-.691-1.01.15 0 .46.155.616.155.214.085.42.189.615.312.076.076.23.156.31.232.04.29.117.572.23.842a.291.291 0 0 0 .076.235c.218-.467.448-.543.599-.93h-.008Zm-10.694-7.364c0-.076-.234-.076-.385-.076-.15 0-.31.076-.465.076-.146.238-.25.5-.305.774a3.82 3.82 0 0 1-.31.544s.695-.156.837-.156c.232-.119.42-.31.536-.543a.82.82 0 0 0 .093-.62ZM81.6 15.017a1.541 1.541 0 0 0-.46-.695c-.08.076-.462.308-.541.464-.138.06-.267.138-.385.231 0 .156.075.236.155.392 0 .151.075.539.075.842 0 0 .234-.156.234-.312.283-.326.587-.634.91-.922h.012Zm6.86 8.606c-.075-.08-.075-.235-.15-.391a5.784 5.784 0 0 1-.155-1.162h-.62c-.155.08-.23 0-.381.08.006.333.113.655.305.926.218.467.989.547.989.547h.013Zm-3.853-4.416v-.544a2.162 2.162 0 0 1 0-.698c-.075-.156-.23-.076-.31 0h-.46a5.626 5.626 0 0 0-.151 1.082 3.014 3.014 0 0 0-.16.467 7.8 7.8 0 0 0-.385.775c.235.075.465-.08.62-.08.16-.062.315-.14.46-.232.14-.25.265-.506.374-.77h.012Zm-2.467-2.485a1.88 1.88 0 0 1-.31-.543c-.5.11-.99.267-1.461.468.225.392.407.809.54 1.242.17-.078.325-.183.46-.312a8.7 8.7 0 0 1 .759-.855h.012Zm.31 1.263c-.155-.075-.465.076-.695.076-.23 0-.77 0-.77.08.075.152.075.308.154.464.115.214.168.456.155.698.038.256.038.515 0 .771 0 0 .976-.56.976-.716.075-.231 0-.387.075-.623-.005-.26.026-.52.093-.77l.012.02Zm2.698 4.342c-.838-.312-.771-.624-1.081-.775a6.27 6.27 0 0 0-1.927-.935 4.421 4.421 0 0 0-1 0c-.617 1.086-.839 2.105-1.312 3.255-.08.236-.23.699-.23.699a2.291 2.291 0 0 0-1.156-.388 1.256 1.256 0 0 0-1.311.843 1.669 1.669 0 0 0-.926-.156c-.53.057-1 .371-1.256.842a1.104 1.104 0 0 0-.218.918 1.63 1.63 0 0 0-.77.842c-.156.623.384 1.684.615 1.94h.775c-.155-.702-.465-1.01-.235-1.713.155-.383.691-.539.838-.61 0-.316-.386-.543-.31-.842.15-.388.616-.388 1.08-.308-.08.463-.154 1.082-.23 1.684-.004.61.1 1.216.306 1.79h.838a2.407 2.407 0 0 1-.151-.703 1.722 1.722 0 0 1-.076-.615c.058-.277.084-.56.076-.842.77-.392.54.156.69.307 0 0 .31-.699-.075-1.002-.075-.08-.54 0-.54-.08a2.9 2.9 0 0 1 .155-.543c.11-.217.24-.424.386-.619.075-.076.31-.076.615 0 .236.03.469.08.695.152-.08.227-.385.699-.46.93a7.944 7.944 0 0 0-.235 3.027h.838c-.04-.57-.04-1.143 0-1.713.15-.695.385-.77.46-.77a.52.52 0 0 1 .386.31c.155.78-.306 1.47-.306 2.174h.616a.53.53 0 0 0 .306-.316c.215-.451.396-.919.54-1.398a1.758 1.758 0 0 0-.306-1.154 3.97 3.97 0 0 0-1.005-.935.998.998 0 0 1 0-.699c0 .08.31-.075.465-.075.37.061.73.164 1.076.307.271.1.53.232.771.392.32.326.558.724.695 1.162 0 0 .155-1.015.155-1.318a4.093 4.093 0 0 0-1.08-.842 7.669 7.669 0 0 0-1.617-.7.92.92 0 0 0 .155-.382 3.131 3.131 0 0 1 1.231 0 7.402 7.402 0 0 1 2.095 1.006c.075-.145.127-.302.155-.463 0 0-1.081-.7-1.001-.935a2.747 2.747 0 0 0-.838-.543c-.461-.076-1.387-.152-1.387-.152.143-.19.297-.372.461-.543h.616a4.79 4.79 0 0 1 1.545.467c.692.308 1.077.544 1.156.7a6.18 6.18 0 0 1 .235-.7l.013.022Zm-1.852 6.277a1.707 1.707 0 0 0-.607-.711c-.54 0-.386.842-.54 1.263-.076.076-.155.236-.076.316h1.156s.055-.737.055-.889l.012.022Zm27.912-22.012-.93-.699-.305-.387.837-.232.398 1.318Zm-3.317-1.394h-.385l-.465.308-.616-.464.691-.387.775.543Zm-15.418-.231a.587.587 0 0 1-.54.387 2.567 2.567 0 0 0-1.311-.93c-.076-.312.155-.624.306-.843a.872.872 0 0 1 .837-.231c.238.018.46.13.616.311.23.274.155.897.08 1.285l.012.02Zm-2.391.842c-.156.156-.54.076-.926.076 0-.156 0-.464-.155-.464-.15-.155-.385-.155-.385-.311-.306-.312.46-.076.837 0 .155-.013 1.462.299.616.686l.013.013Zm1.465.842s-.075.156-.155.156a.759.759 0 0 1-.389.311c-.075 0-.15.156-.15.232a.756.756 0 0 1-.696.311.61.61 0 0 1-.616-.311s.08.93.08 1.162a.076.076 0 0 0 .075.08c.306.076.386.383.54.539a.26.26 0 0 0 .156.08c.305.231 1 .543.69.543 0 .156-.23.539-.305.539a3.716 3.716 0 0 0-.926-.539c-.08-.156-.155-.312-.23-.467-.144-.12-.3-.225-.465-.312 0-.539-.08-.539-.08-1.082 0-.076-.15-.93-.15-.93a.805.805 0 0 1 .46-.388s1.454-.004 2.149.072l.012.004ZM87.38 5.1c0 .312-.226.468-.46.775-.152.236-.231.08-.617.08h-.385c0-.236.155-.311.385-.543.18-.15.39-.256.616-.312.143-.08.448-.155.448-.004l.013.004Zm-2.002-.842c0 .076 0 .156-.075.156-.216.14-.422.295-.616.463-.39.232-.465.62-.696.62a2.652 2.652 0 0 1-.615-.7.905.905 0 0 1-.155-.695c.155-.463.69-.618 1-.698a.835.835 0 0 1 .541.155c.293.143.44.143.603.687l.013.012Zm5.244 6.897c0 .076-.076.463-.076.463-.31-.075-.544-.307-.925-.307 0-.232 0-.232.075-.312.312-.045.63.005.913.143l.013.013Zm-3.703-4.185c0 .08-.075.543-.075.619-.076.467-.076.619-.155 1.318v.231c-.076.156-.386.232-.54.392-.076.231-.076.387-.306.463-.23.076-.386.307-.54.232-.235-.156-.156-.544 0-.775.178-.222.419-.385.69-.468.31-.075.23-.694.23-.774.08-.152 0-.383 0-.54-.15.077-.15 0-.46.077a.811.811 0 0 1-.615-.308 3.497 3.497 0 0 1-.696-.779 5.187 5.187 0 0 1 1.08-.076h1.002c.222.064.373.22.373.375l.012.013Zm-.616 4.185c-.121.088-.25.165-.385.232-.145.094-.299.171-.46.231a2.715 2.715 0 0 1-.155-.463c.172-.052.348-.088.527-.105a.993.993 0 0 1 .461.092l.012.013Z" fill="#fff"></path></svg>
